<?xml version="1.0" encoding="UTF-8"?><svg xmlns="http://www.w3.org/2000/svg" xmlns:xlink="http://www.w3.org/1999/xlink" height="436.4" preserveAspectRatio="xMidYMid meet" version="1.0" viewBox="-3.0 -1.2 507.3 436.4" width="507.3" zoomAndPan="magnify"><g><g id="change1_5"><path d="M169.7,127.7c25.1-6.2,46-34,34.5-60.2c-11.2-25.6-41.9-31.1-63.4-19.2C145.7,27,133.2,1.2,108.7,0 C82-1.2,57.7,31.8,65,55.8C56.4,51,46,48.6,37.6,49.4C19.1,51.1,5.6,66.5,1.3,83.7C-3,100.8,3.6,117.7,18,127.6 c6.6,4.6,16.7,8.5,26.6,9.4c-14.9,21.6-19.9,49.6,6.3,66.8c21.9,14.4,52.5,2.1,60.5-20.4c11.3,14.3,34.5,20.1,51.8,8 C182.8,177.7,184.8,145.6,169.7,127.7z M127.7,182.6c-11.7-6.6-16.8-18.2-17.5-31.2c-0.1-1.3-2.1-2.2-2.8-0.7 c-2.3,5.5-3.2,10.7-2.8,15.7c-1.7,22.7-32.1,37.3-50,22.3c-16.5-13.8-8.5-35.9,2-52.3c4.3-1,8.2-3,11.2-6.3c2.5-2.7,1.8-8-2.3-8.7 c-0.6-0.1-1.1-0.2-1.7-0.3c-1.1-1.2-2.9-1.6-4.6-0.4c-9.8-0.4-19.2,1.5-28.9-3.6C18.7,110.9,13,99.4,16.6,86.6 c3.6-12.9,12.5-21.7,25.8-23.5c13.2-1.8,23.1,5.4,35.2,9.2c0.3,0.1,0.6,0.1,0.8,0c0.3,0.2,0.7,0.4,1,0.6c2.8,1.5,5.5-2.1,3.4-4.4 c-18.1-19.4-1.2-60.2,27-56.4c10.1,1.3,17.2,10.2,19.7,19.6c3.1,11.5-1.2,21.7-7.8,31c-1.3,1.8-0.6,4,0.8,5.4 c-0.3,0.7-0.6,1.4-0.9,2.1c-0.4,1.2,1.1,1.8,1.9,1.1c0.7-0.6,1.5-1.2,2.3-1.8c0.7,0,1.3-0.2,2-0.7c1.5-1.1,2.9-2.3,4.1-3.6 c19.4-12.3,48.5-19.3,59.3,5.9c5.4,12.6,1.3,26-9.2,34.5c-11.1,9-24.7,9.5-38.1,6.4c-6.7-1.5-10.7,7.4-4.7,11.1 c2.9,1.8,6,3.2,9.1,4.1c0.5,0.7,1.1,1.3,1.9,1.9c15.1,11,24.2,34.2,8.7,49.4C150.4,186.7,137.8,188.3,127.7,182.6z" fill="#FFF"/></g><g id="change1_4"><path d="M97.9,92.6c-1.5,0.7-2.4,2-2.9,3.6c-3.5,1.4-6.7,4.2-8.3,6.7c-4.7,7.4-0.1,15.1,7.3,18.1 c7.1,2.9,15.7,2.3,21.5-3c4.4-4,6.5-10.4,4.6-16.1C117.2,93.4,105.8,89,97.9,92.6z M98.2,108c0,0,0-0.1,0-0.2 C98.2,107.9,98.2,107.9,98.2,108z M103.7,108C103.6,108.1,103.5,108.1,103.7,108L103.7,108z M106.2,106.6 C106.2,106.6,106.2,106.5,106.2,106.6C106.1,106.9,105.8,107.5,106.2,106.6z M106.3,106.4c-0.1,0.2-0.3,0.5-0.4,0.6 c0,0-0.1,0-0.1,0.1c0,0,0,0.1-0.1,0.1c0,0,0,0,0,0c0,0,0,0,0,0c-0.2,0.3-0.7,0.5-0.7,0.5c-0.1,0.1-0.3,0.2-0.4,0.2 c-0.5,0.2,1.2-0.6-0.3,0.1c-0.2,0.1-0.3,0.1-0.4,0.1c-0.5,0-1.1,0-1.6,0c-0.2,0-0.3,0-0.4,0c-0.1,0-0.1,0-0.2,0 c-0.9-0.1-1.8-0.3-2.7-0.6c-0.1,0-0.4-0.1-0.6-0.2c0-0.1,0.1-0.1,0.1-0.2c0.4-0.7,0.9-1.5,1.3-1.9c0.1-0.1,0.1-0.1,0.2-0.2 c0.7,0.2,1.4,0.4,2.2,0.5c0.2,0,1.5,0.1,1.6,0.1c0.5,0.1,0.9,0.2,1.4,0.3c0.1,0,0.3,0.1,0.4,0.1c0.2,0.1,0.5,0.2,0.7,0.4 C106.2,106.3,106.2,106.3,106.3,106.4C106.3,106.3,106.3,106.3,106.3,106.4C106.3,106.4,106.3,106.4,106.3,106.4z" fill="#FFF"/></g><g id="change1_3"><path d="M105,107.6c0.2-0.1,0.5-0.3,0.7-0.5c0,0,0,0,0,0C105.2,107.4,105,107.6,105,107.6z" fill="#FFF"/></g><g id="change1_6"><path d="M105.8,107C105.8,107,105.8,107,105.8,107C106.1,106,105.2,107.4,105.8,107z" fill="#FFF"/></g><g id="change1_1"><path d="M402.3,109c-1.7-0.4-3,0-3.9,0.9c-2.4-0.5-5-0.4-6.8,1.6c-1.8,2-2.3,5.2-2.3,7.8c0,5.7,2.9,11.6,9,12.6 c6.2,1,11.9-3.1,12.9-9.3C412.2,116.3,408.4,110.5,402.3,109z M400.2,124.2c-4.4,0.2-4.3-5.8-3.7-9.2c0.3-0.2,0.6-0.4,0.9-0.6 c0.5,1.4,1.7,2.5,3.7,2.8C404.7,117.7,403.8,124,400.2,124.2z" fill="#FFF"/></g><g id="change1_7"><path d="M497.4,91.2c-6.3-13.4-23.3-18.5-37.5-15.1c1.4-5.5,1.6-11.3,0.6-16.5c-2.6-14.9-13.5-27.9-27.7-33.2 c-4.4-1.6-9.1-2.5-13.9-2.7c-15-1-32.6,5.3-41.4,17.2c-3.6,4.9-5.8,11.8-6.5,19c-0.7,2.9-1.2,5.8-1.3,8.6c-4-2.2-8.9-3.2-13.3-3.2 c-14.8,0-27.8,7.2-37.3,18.3c-9.4,10.9-16.2,25.6-12.6,40.2c3.1,12.6,13.1,21.4,25.1,24.5c-10.5,13.9-5.2,40.4,6.1,51.8 c9.9,10,26.5,12.2,39.2,6.8c8.9-3.7,19.3-11.7,26-20.8c2.8,5.6,7.4,10.6,11.2,13.3c11.2,7.6,27.2,9.1,39.9,4.9 c15.2-5,24.8-15.8,26.2-31.9c0.7-8.1-0.1-16.2-4.1-23.4c-1.3-2.2-2.9-4.7-4.7-7.1c5.4-1.2,10.6-3.9,14.1-7.4 C496.3,124,504.3,105.9,497.4,91.2z M472.1,125.7c-6.8,3.3-13.5-2.3-19.7,3.9c-1.8,1.9-2.5,5.3-1.1,7.7c0,0.3,0,0.5,0.1,0.8 c1.5,11.1,13.8,15.9,14.2,28.1c0.3,11.3-6.4,18.6-17.1,21.3c-7.9,2-17,2.5-24.7-0.7c-3.6-1.5-6.8-3.6-9-6.8 c-2.6-3.7-2.7-8.4-6.1-11.3c-0.5-0.5-1.2-0.8-1.9-0.9c-1.7-1.3-4-1.6-6-0.3c-8.8,5.9-13.7,16.1-22.7,22.2 c-8.5,5.8-21.5,8.6-30.2,1.6c-14.1-11.2-12.3-33.6,0.4-44.6c3.1-2.7-0.2-7.4-3.8-6.6c-0.3,0.1-0.6,0.2-0.9,0.3 c-0.4-0.5-0.9-0.9-1.5-1.2c-8.6-4.4-19.3-8.8-21.8-19.2c-2.2-9.1,2.3-18.8,7.7-25.9c5.9-7.8,13.3-13.4,22.8-15.9 c10.2-2.7,17.5-0.9,23.7,7.4c1,1.3,3.4,1.6,4.1,0c0.6,0.2,1.4-0.1,1.6-0.8c2.1-10.1-1.5-20,1.3-30c1.9-4.5,4.4-8.6,7.9-12 c9.7-9.6,26.4-12.1,38.9-7.3c2.9,1.1,5.7,2.7,8.2,4.6c4.6,4.1,8.3,9.4,10.9,15.2c0.4,1.2,0.8,2.4,1,3.6c1.1,4.8,1,9.9-0.7,14.5 c-2.2,6.3-7,9.4-10.9,14.4c-3.2,4.1-0.5,11.8,5.7,9.8c2.5-0.8,4.7-2,6.6-3.5c0.9-0.4,1.7-0.9,2.4-1.5c10.7-4.8,26.5-7,32.3,4.5 C488,105.5,480.4,121.6,472.1,125.7z" fill="#FFF"/></g><g id="change1_2"><path d="M267.9,301.5c-0.5-0.3-0.9-0.5-1.5-0.6c-6.5-7.4-16.7-6.5-24.1-0.4c-9.5,7.8-8.1,21.2,0.1,29.4 c8,8,21.2,8,29.4,0.2c3.8-3.6,6.1-8.6,5.6-13.9C276.9,309.7,273.3,305,267.9,301.5z M262.1,315.4c-0.1,0.3-0.4,1.1-0.4,1.1 c-0.1,0.3-0.2,0.5-0.4,0.7c0,0-0.4,0.4-0.6,0.7c-0.3,0.2-1.1,0.6-1.4,0.8c-0.4,0.1-1,0.3-1.1,0.3c-0.1,0-0.2,0-0.2,0.1 c0,0-0.1,0-0.1,0c-0.5,0-1,0-1.4,0c-0.2,0-0.6-0.1-0.9-0.2c-1.7-0.5-1.5-0.2-2.6-1c-1.2-0.9-3-2.8-3.2-4.9c0,0.1,0.1-0.9,0.5-1.7 c0-0.1,0.8-1.3,1.2-1.8c2-2.2,5.6-3.8,9-4.3c-0.1,0.6,0,1.3,0.2,2c0.7,1.6,1.1,3.2,1.4,5c0.1,0.3,0.3,1.5,0.3,1.7c0,0,0,0.5,0,0.7 C262.2,314.8,262.2,315.1,262.1,315.4z" fill="#FFF"/></g><g id="change1_8"><path d="M358.7,286.1c-2.5-21.4-19-45-42.6-44.8c-8.1,0.1-15.9,3.1-22.4,8c-0.5-26-27.9-51.3-54.2-38.2 c-13.7,6.8-25.7,20.5-30.8,35c-1.2,3.3-1.8,7.7-1.6,12c-17.3-8.1-38.8-0.3-51.3,16.4c-14.8,19.8-19.6,51.9-0.5,70.8 c6.5,6.5,20.5,13.5,32.7,14.3c-13.9,18.5-9.6,47.1,8.7,63.1c10.1,8.8,23.6,12.5,36.4,7.7c11.9-4.4,24.3-17.1,29.6-30.3 c13.5,21.4,58.5,23.7,75.4,5.2c11.6-12.7,14.6-32.3,10.3-48.6c-2.1-8.1-6.3-16.1-12.6-21.7c-1.2-1-2.5-2.1-4-3.2 C349.3,324.2,361.1,306.7,358.7,286.1z M343.4,303.4c-6,14-19.5,15.4-32.7,17.4c-7.3,1.1-6.8,11.3-1.3,14.2 c0.3,1.1,0.8,2.3,1.6,3.3c3.5,4.4,10.1,4.3,14.4,8.3c4.1,3.8,6.4,9,7.7,14.4c2.6,10.7,0.8,24.2-6.6,32.8c-7.7,8.9-22.3,9.5-33,7.5 c-11.6-2.2-23.1-9.6-27.8-20.9c-1.1-2.6-5.5-3.5-6.2,0c-0.3,1.3-0.4,2.7-0.6,3.9c-1.1,0.1-2.1,0.6-2.9,1.5 c-9.7,10.2-12.4,24.8-26.8,30.2c-8.3,3.1-17.1,0.4-23.5-5.3c-15.6-13.8-14.1-35.3-6.1-52.7c2.1-0.9,3.9-2.1,5.5-3.7 c1.8-1.9,2.3-5.7,0-7.5c-7.3-5.6-17.7-3.6-26.3-6c-5.8-1.7-11.3-4.8-15-9.7c-6.8-9-6.7-21.4-3.8-31.8c3.1-11,9.8-22,20-27.7 c12.6-7,24.2-1.5,36,4.5c2.6,1.3,6.1-0.6,6.4-3.1c1.5-0.7,2.5-2.7,1.9-4.2c-3.2-7.8-5.4-12.2-1.6-20.6c4.3-9.6,12.4-18.6,21.4-23.9 c23.5-14,41.3,16.9,37.9,38c-0.7,1.2-1.4,2.4-2,3.6c-2.1,4.2,2.9,8.1,6.4,5c0.2-0.2,0.4-0.4,0.6-0.6c0.5-0.3,0.9-0.7,1.3-1.2 c9-8.2,18.8-18.2,32.1-15.3c10,2.2,17.4,11,21.5,19.8C345.9,282.7,347.5,294,343.4,303.4z" fill="#FFF"/></g></g></svg>